# xmcd CD database file
#
# Track frame offsets:
#	150
#	22858
#	46674
#	68480
#	89534
#	111466
#	130804
#	152371
#	174849
#	196798
#	222484
#	227949
#
# Disc length: 3341 seconds
#
# Revision: 9
# Processed by: cddbd v1.4PL0 Copyright (c) Steve Scherf et al.
# Submitted via: CDex 1.50
#
DISCID=930d0b0c
DTITLE=Utada Hikaru - Deep River
DYEAR=2002
DGENRE=R&B
TTITLE0=SAKURA drops
TTITLE1=traveling
TTITLE2=Shiawase ni narou
TTITLE3=Deep River
TTITLE4=Letters
TTITLE5=Play Ball
TTITLE6=Tokyo NIGHTS
TTITLE7=A.S.A.P.
TTITLE8=Uso mitai na I Love You
TTITLE9=FINAL DISTANCE
TTITLE10=Bridge (Interlude)
TTITLE11=Hikari
EXTD=YEAR: 2002
EXTT0=
EXTT1=
EXTT2=
EXTT3=
EXTT4=
EXTT5=
EXTT6=
EXTT7=
EXTT8=
EXTT9=
EXTT10=
EXTT11=
PLAYORDER=
